<?xml version="1.0" encoding="UTF-8"?>
<svg xmlns="http://www.w3.org/2000/svg" viewBox="0 0 800 600" width="800" height="600">
  <!-- Background -->
  <rect width="800" height="600" fill="#1D0A30" />
  
  <!-- Stage -->
  <rect x="100" y="420" width="600" height="80" fill="#2D1B3E" />
  <rect x="50" y="500" width="700" height="50" fill="#1A0827" />
  
  <!-- Lights -->
  <g opacity="0.8">
    <circle cx="150" cy="100" r="40" fill="#FF4500" opacity="0.5">
      <animate attributeName="opacity" values="0.3;0.8;0.3" dur="3s" repeatCount="indefinite" />
    </circle>
    <circle cx="300" cy="80" r="50" fill="#FFFF00" opacity="0.6">
      <animate attributeName="opacity" values="0.4;0.9;0.4" dur="4s" repeatCount="indefinite" />
    </circle>
    <circle cx="450" cy="90" r="45" fill="#00FFFF" opacity="0.7">
      <animate attributeName="opacity" values="0.5;0.8;0.5" dur="3.5s" repeatCount="indefinite" />
    </circle>
    <circle cx="600" cy="110" r="55" fill="#FF00FF" opacity="0.5">
      <animate attributeName="opacity" values="0.3;0.7;0.3" dur="2.8s" repeatCount="indefinite" />
    </circle>
  </g>
  
  <!-- Light beams -->
  <g opacity="0.4">
    <polygon points="150,100 100,420 200,420" fill="#FF4500" />
    <polygon points="300,80 250,420 350,420" fill="#FFFF00" />
    <polygon points="450,90 400,420 500,420" fill="#00FFFF" />
    <polygon points="600,110 550,420 650,420" fill="#FF00FF" />
  </g>
  
  <!-- Band Silhouettes -->
  <g fill="#000000">
    <!-- Drummer -->
    <ellipse cx="400" cy="360" rx="30" ry="30" />
    <rect x="370" y="390" width="60" height="80" />
    
    <!-- Guitarist 1 -->
    <ellipse cx="250" cy="370" rx="20" ry="20" />
    <rect x="230" y="390" width="40" height="80" />
    <line x1="210" y1="420" x2="290" y2="420" stroke="#000000" stroke-width="5" />
    
    <!-- Guitarist 2 -->
    <ellipse cx="550" cy="370" rx="20" ry="20" />
    <rect x="530" y="390" width="40" height="80" />
    <line x1="510" y1="420" x2="590" y2="420" stroke="#000000" stroke-width="5" />
    
    <!-- Singer -->
    <ellipse cx="400" cy="270" rx="25" ry="25" />
    <rect x="375" y="295" width="50" height="60" />
    <rect x="385" y="355" width="30" height="80" />
  </g>
  
  <!-- Crowd -->
  <g fill="#180825">
    <ellipse cx="100" cy="520" rx="15" ry="20" />
    <ellipse cx="130" cy="525" rx="15" ry="20" />
    <ellipse cx="160" cy="522" rx="15" ry="20" />
    <ellipse cx="190" cy="528" rx="15" ry="20" />
    <ellipse cx="220" cy="520" rx="15" ry="20" />
    <ellipse cx="250" cy="525" rx="15" ry="20" />
    <ellipse cx="280" cy="522" rx="15" ry="20" />
    <ellipse cx="310" cy="528" rx="15" ry="20" />
    <ellipse cx="340" cy="520" rx="15" ry="20" />
    <ellipse cx="370" cy="525" rx="15" ry="20" />
    <ellipse cx="400" cy="522" rx="15" ry="20" />
    <ellipse cx="430" cy="528" rx="15" ry="20" />
    <ellipse cx="460" cy="520" rx="15" ry="20" />
    <ellipse cx="490" cy="525" rx="15" ry="20" />
    <ellipse cx="520" cy="522" rx="15" ry="20" />
    <ellipse cx="550" cy="528" rx="15" ry="20" />
    <ellipse cx="580" cy="520" rx="15" ry="20" />
    <ellipse cx="610" cy="525" rx="15" ry="20" />
    <ellipse cx="640" cy="522" rx="15" ry="20" />
    <ellipse cx="670" cy="528" rx="15" ry="20" />
    <ellipse cx="700" cy="520" rx="15" ry="20" />
  </g>
  
  <!-- Hands up in crowd -->
  <g stroke="#4D3A60" stroke-width="3">
    <line x1="130" y1="510" x2="130" y2="490" />
    <line x1="190" y1="515" x2="190" y2="485" />
    <line x1="250" y1="512" x2="250" y2="490" />
    <line x1="310" y1="515" x2="310" y2="487" />
    <line x1="370" y1="510" x2="370" y2="480" />
    <line x1="430" y1="512" x2="430" y2="485" />
    <line x1="490" y1="516" x2="490" y2="488" />
    <line x1="550" y1="514" x2="550" y2="486" />
    <line x1="610" y1="510" x2="610" y2="482" />
    <line x1="670" y1="515" x2="670" y2="490" />
  </g>
  
  <!-- Smoke effect -->
  <g opacity="0.3">
    <ellipse cx="400" cy="400" rx="350" ry="20" fill="white">
      <animate attributeName="ry" values="20;30;20" dur="7s" repeatCount="indefinite" />
      <animate attributeName="opacity" values="0.2;0.4;0.2" dur="7s" repeatCount="indefinite" />
    </ellipse>
  </g>
  
  <!-- Spotlight flashes -->
  <g>
    <circle cx="400" cy="300" r="100" fill="white" opacity="0.05">
      <animate attributeName="opacity" values="0.05;0.2;0.05" dur="1s" repeatCount="indefinite" />
    </circle>
    <circle cx="250" cy="320" r="70" fill="white" opacity="0.04">
      <animate attributeName="opacity" values="0.04;0.15;0.04" dur="1.3s" repeatCount="indefinite" />
    </circle>
    <circle cx="550" cy="320" r="70" fill="white" opacity="0.04">
      <animate attributeName="opacity" values="0.04;0.15;0.04" dur="1.5s" repeatCount="indefinite" />
    </circle>
  </g>
</svg>